HIERARCHY
ROOT Hips
{
	OFFSET 0.000000 88.474243 0.000000
	CHANNELS 6 Xposition Yposition Zposition Zrotation Yrotation Xrotation 
	JOINT Hips_Spine
	{
		OFFSET 0.000000 0.000000 0.000000
		CHANNELS 3 Zrotation Yrotation Xrotation
		JOINT Spine
		{
			OFFSET 0.005100 8.711998 -0.691000
			CHANNELS 3 Zrotation Yrotation Xrotation
			JOINT Spine1
			{
				OFFSET -0.009200 8.660301 -1.275000
				CHANNELS 3 Zrotation Yrotation Xrotation
				JOINT Spine2
				{
					OFFSET 0.006300 9.852501 -1.857000
					CHANNELS 3 Zrotation Yrotation Xrotation
					JOINT Spine2_Neck
					{
						OFFSET 0.000000 0.000000 0.000000
						CHANNELS 3 Zrotation Yrotation Xrotation
						JOINT Neck
						{
							OFFSET 0.016300 11.420799 -0.263300
							CHANNELS 3 Zrotation Yrotation Xrotation
							End Site #name: Head
							{
								OFFSET -0.019200 9.262405 2.362500
							}
						}
					}
					JOINT Spine2_LeftShoulder
					{
						OFFSET 0.000000 0.000000 0.000000
						CHANNELS 3 Zrotation Yrotation Xrotation
						JOINT LeftShoulder
						{
							OFFSET 5.616900 6.732201 -0.345700
							CHANNELS 3 Zrotation Yrotation Xrotation
							JOINT LeftArm
							{
								OFFSET 10.664888 -0.183372 -2.440700
								CHANNELS 3 Zrotation Yrotation Xrotation
								JOINT LeftForeArm
								{
									OFFSET 27.459126 0.000000 0.000000
									CHANNELS 3 Zrotation Yrotation Xrotation
									End Site #name: LeftHand
									{
										OFFSET 21.306858 0.000000 0.000000
									}
								}
							}
						}
					}
					JOINT Spine2_RightShoulder
					{
						OFFSET 0.000000 0.000000 0.000000
						CHANNELS 3 Zrotation Yrotation Xrotation
						JOINT RightShoulder
						{
							OFFSET -5.580300 6.737503 -0.344400
							CHANNELS 3 Zrotation Yrotation Xrotation
							JOINT RightArm
							{
								OFFSET -10.679335 -0.188484 -2.383900
								CHANNELS 3 Zrotation Yrotation Xrotation
								JOINT RightForeArm
								{
									OFFSET -27.503529 0.000000 0.000000
									CHANNELS 3 Zrotation Yrotation Xrotation
									End Site #name: RightHand
									{
										OFFSET -21.306808 0.000000 0.000000
									}
								}
							}
						}
					}
				}
			}
		}
	}
	JOINT Hips_LeftUpLeg
	{
		OFFSET 0.000000 0.000000 0.000000
		CHANNELS 3 Zrotation Yrotation Xrotation
		JOINT LeftUpLeg
		{
			OFFSET 6.857700 -6.739601 0.312100
			CHANNELS 3 Zrotation Yrotation Xrotation
			JOINT LeftLeg
			{
				OFFSET -0.367590 -34.731552 -4.572400
				CHANNELS 3 Zrotation Yrotation Xrotation
				End Site #name: LeftFoot
				{
					OFFSET 0.367590 -34.656704 -6.067400
				}
			}
		}
	}
	JOINT Hips_RightUpLeg
	{
		OFFSET 0.000000 0.000000 0.000000
		CHANNELS 3 Zrotation Yrotation Xrotation
		JOINT RightUpLeg
		{
			OFFSET -6.876100 -6.733299 0.301000
			CHANNELS 3 Zrotation Yrotation Xrotation
			JOINT RightLeg
			{
				OFFSET 0.347353 -34.795158 -4.515900
				CHANNELS 3 Zrotation Yrotation Xrotation
				End Site #name: RightFoot
				{
					OFFSET -0.347353 -34.589367 -6.070300
				}
			}
		}
	}
}
MOTION
Frames: 14
Frame Time: 0.041667
-1.692202 0.020867 -1.881202 -1.976929 16.957719 -7.981798 0.000000 0.000000 0.000000 2.505847 -1.803555 3.104342 1.306566 -0.477633 1.973842 0.000000 0.000000 0.000000 1.037304 -0.556760 1.496781 2.189784 1.519869 -1.784670 1.089029 -0.646161 1.063616 -16.860865 1.011366 0.258978 -58.926190 8.071027 24.955423 -0.639389 -25.493352 1.053775 0.944335 -0.347848 1.528491 21.250347 10.428775 3.474062 54.785102 -1.326314 2.848755 0.435641 38.344968 0.268644 0.000000 -0.000000 -0.000000 4.450905 12.915321 -9.487102 5.587809 8.624782 21.274701 0.000000 -0.000000 0.000000 0.874552 -11.550592 -8.537613 2.366017 6.524745 8.756204 
-1.890932 0.003360 -1.924440 -2.137415 17.383735 -7.991761 0.000000 0.000000 0.000000 2.745708 -1.742466 3.166440 1.444515 -0.474383 2.001026 0.000000 0.000000 0.000000 1.147472 -0.534937 1.540020 2.168605 1.513182 -1.741964 1.202456 -0.628191 1.147215 -16.681869 0.880588 0.279098 -59.053926 8.319384 24.735015 -0.636413 -25.884198 1.061104 1.030626 -0.349362 1.569169 21.226370 10.533772 3.489606 54.560158 -1.427106 3.137740 0.446418 39.991330 0.301303 0.000000 -0.000000 -0.000000 4.967870 13.164623 -9.550628 5.609693 8.622647 21.175692 0.000000 -0.000000 0.000000 1.256800 -11.497051 -8.825795 2.118325 5.818387 8.997420 
-2.075320 -0.013754 -1.961121 -2.288420 17.762283 -7.992984 0.000000 0.000000 0.000000 2.928585 -1.715096 3.278696 1.566077 -0.476759 2.030703 0.000000 0.000000 0.000000 1.247692 -0.520573 1.579531 2.155434 1.509398 -1.702892 1.308927 -0.615003 1.224540 -16.535556 0.771651 0.295305 -59.130199 8.564263 24.506526 -0.635044 -26.242374 1.068583 1.115997 -0.349639 1.601597 21.185819 10.622184 3.504889 54.311414 -1.372885 3.398818 0.460159 41.713694 0.338239 0.000000 -0.000000 -0.000000 5.446100 13.443876 -9.591548 5.607536 8.538664 21.043541 0.000000 -0.000000 0.000000 1.614630 -11.443326 -9.096036 1.864006 5.122803 9.236078 
-2.242306 -0.030447 -1.990444 -2.419338 18.119156 -7.980917 0.000000 0.000000 0.000000 3.068104 -1.714260 3.416291 1.667463 -0.484397 2.061106 0.000000 0.000000 0.000000 1.331171 -0.512373 1.614910 2.146768 1.512035 -1.667593 1.408320 -0.612665 1.283781 -16.403621 0.686903 0.309562 -59.177675 8.775104 24.288988 -0.635412 -26.576254 1.074716 1.215738 -0.340501 1.618833 21.153689 10.691464 3.516352 54.054485 -1.230465 3.671703 0.475499 43.486745 0.377487 0.000000 -0.000000 -0.000000 5.849403 13.719969 -9.610778 5.581331 8.374527 20.847556 0.000000 -0.000000 0.000000 1.939931 -11.407222 -9.351273 1.601549 4.437524 9.484053 
-2.387719 -0.046734 -2.012764 -2.523101 18.438795 -7.962669 0.000000 0.000000 0.000000 3.151416 -1.734206 3.606055 1.747827 -0.493972 2.091823 0.000000 0.000000 0.000000 1.398964 -0.508424 1.645489 2.143135 1.520252 -1.638595 1.490216 -0.619077 1.337288 -16.291552 0.628051 0.318692 -59.203755 8.995974 24.063866 -0.637240 -26.906421 1.082258 1.295934 -0.334576 1.634978 21.138493 10.745108 3.527272 53.819501 -1.071575 3.909207 0.494242 45.191398 0.420134 0.000000 -0.000000 -0.000000 6.177916 13.954433 -9.634942 5.576415 8.182887 20.728723 0.000000 -0.000000 0.000000 2.220766 -11.399328 -9.591761 1.328468 3.756482 9.745057 
-2.504922 -0.062040 -2.028328 -2.596471 18.713142 -7.942665 0.000000 0.000000 0.000000 3.183583 -1.767659 3.822590 1.809866 -0.502694 2.119391 0.000000 0.000000 0.000000 1.453016 -0.505040 1.672603 2.144807 1.535073 -1.622661 1.555797 -0.624887 1.382266 -16.195832 0.585690 0.327486 -59.199938 9.210744 23.854386 -0.638298 -27.201539 1.089385 1.358999 -0.329004 1.650161 21.126600 10.785534 3.534494 53.611940 -0.918170 4.099848 0.514608 46.707244 0.461585 0.000000 -0.000000 -0.000000 6.425898 14.144938 -9.735687 5.596765 8.032139 20.800510 0.000000 -0.000000 0.000000 2.439591 -11.410383 -9.806570 1.045108 3.061808 10.015562 
-2.588144 -0.075716 -2.037686 -2.635787 18.916572 -7.913732 0.000000 0.000000 0.000000 3.180677 -1.805864 4.038264 1.858030 -0.509075 2.144803 0.000000 0.000000 0.000000 1.495810 -0.500814 1.695873 2.153160 1.548622 -1.612307 1.607932 -0.627456 1.424197 -16.113774 0.549219 0.335455 -59.193389 9.426772 23.641595 -0.639259 -27.477309 1.094494 1.409925 -0.322972 1.662009 21.116484 10.816434 3.539186 53.419290 -0.763042 4.242872 0.535256 48.026866 0.502079 0.000000 -0.000000 -0.000000 6.602790 14.269689 -9.807025 5.680751 8.108042 20.855404 0.000000 -0.000000 0.000000 2.596610 -11.430890 -9.996660 0.746469 2.337370 10.286815 
-2.631063 -0.087056 -2.041428 -2.643364 19.044162 -7.874996 0.000000 0.000000 0.000000 3.145319 -1.840989 4.228978 1.895668 -0.512066 2.165986 0.000000 0.000000 0.000000 1.529757 -0.494482 1.714434 2.166027 1.555331 -1.602885 1.649635 -0.626958 1.458895 -16.046338 0.517511 0.341530 -59.152921 9.621895 23.452703 -0.640127 -27.714786 1.100564 1.449560 -0.315435 1.671569 21.110631 10.842408 3.543070 53.241971 -0.587839 4.344845 0.557665 49.125287 0.540001 0.000000 -0.000000 -0.000000 6.708737 14.342530 -9.870315 5.797941 8.386122 20.886381 0.000000 -0.000000 0.000000 2.687185 -11.469150 -10.149814 0.444898 1.597853 10.533931 
-2.627017 -0.094805 -2.039875 -2.624296 19.099686 -7.828504 0.000000 0.000000 0.000000 3.099668 -1.869344 4.393732 1.923727 -0.511144 2.181314 0.000000 0.000000 0.000000 1.555247 -0.486370 1.727525 2.184199 1.565862 -1.599923 1.680555 -0.622176 1.483042 -15.988187 0.484106 0.347352 -59.105936 9.836899 23.261934 -0.640929 -27.916571 1.106173 1.479438 -0.306089 1.678352 21.103298 10.865476 3.546922 53.071349 -0.383087 4.384192 0.580047 50.049731 0.576267 0.000000 -0.000000 -0.000000 6.757596 14.373781 -9.975864 5.934725 8.722626 21.036775 0.000000 -0.000000 0.000000 2.723787 -11.508342 -10.268696 0.145628 0.872429 10.766313 
-2.574048 -0.098776 -2.034540 -2.575932 19.089466 -7.774766 0.000000 0.000000 0.000000 3.036480 -1.882825 4.531360 1.944143 -0.507748 2.195151 0.000000 0.000000 0.000000 1.574786 -0.477378 1.735601 2.203462 1.580674 -1.611724 1.704710 -0.615615 1.497761 -15.953200 0.459337 0.350067 -59.053673 10.043621 23.075497 -0.640340 -28.054420 1.112261 1.498214 -0.296020 1.679325 21.097796 10.883535 3.550258 52.907325 -0.148065 4.355547 0.604782 50.827528 0.614033 0.000000 -0.000000 -0.000000 6.724087 14.364541 -10.080786 6.059075 9.005968 21.180797 0.000000 -0.000000 0.000000 2.710013 -11.550045 -10.343797 -0.140278 0.173787 10.967139 
-2.470013 -0.098710 -2.029132 -2.499946 18.997273 -7.715071 0.000000 0.000000 0.000000 2.952328 -1.878772 4.641276 1.957900 -0.502758 2.205386 0.000000 0.000000 0.000000 1.588066 -0.468811 1.738683 2.225576 1.598148 -1.634483 1.720274 -0.607704 1.504170 -15.937690 0.434057 0.349859 -58.993486 10.239377 22.930443 -0.640362 -28.120908 1.117946 1.510839 -0.286220 1.678658 21.088588 10.896697 3.552867 52.751260 0.148104 4.244456 0.630420 51.480523 0.651342 0.000000 -0.000000 -0.000000 6.579419 14.304819 -10.173691 6.100309 9.146684 21.320137 0.000000 -0.000000 0.000000 2.647000 -11.591104 -10.383203 -0.406900 -0.473819 11.140956 
-2.314349 -0.093951 -2.026626 -2.403129 18.817810 -7.650202 0.000000 0.000000 0.000000 2.839627 -1.859713 4.719240 1.964880 -0.498985 2.214190 0.000000 0.000000 0.000000 1.595933 -0.462420 1.738719 2.245528 1.605265 -1.664604 1.728993 -0.603465 1.501415 -15.949790 0.424443 0.344452 -58.925884 10.454633 22.834754 -0.640620 -28.117532 1.123446 1.517329 -0.279187 1.676772 21.079008 10.902766 3.554356 52.610037 0.495723 4.076455 0.654688 51.971047 0.686087 0.000000 -0.000000 -0.000000 6.329594 14.186667 -10.210967 6.018472 9.085148 21.384089 0.000000 -0.000000 0.000000 2.542583 -11.615585 -10.394090 -0.639286 -1.046401 11.270508 
-2.108939 -0.084771 -2.026921 -2.285392 18.538966 -7.571479 0.000000 0.000000 0.000000 2.699069 -1.832595 4.774568 1.966249 -0.496006 2.218403 0.000000 0.000000 0.000000 1.597867 -0.458201 1.734687 2.265939 1.608125 -1.701593 1.732165 -0.601379 1.489418 -15.990142 0.427875 0.335445 -58.842624 10.640718 22.816604 -0.639477 -28.051034 1.127002 1.516346 -0.274756 1.673292 21.080823 10.903879 3.559046 52.479989 0.907411 3.862766 0.678984 52.273376 0.716414 0.000000 -0.000000 -0.000000 6.001179 14.024923 -10.172662 5.813918 8.893273 21.302436 0.000000 -0.000000 0.000000 2.403305 -11.581157 -10.389626 -0.832815 -1.529219 11.362872 
-1.859506 -0.071893 -2.029263 -2.174192 18.193724 -7.497623 0.000000 0.000000 0.000000 2.542521 -1.797872 4.796014 1.961216 -0.495546 2.219879 0.000000 0.000000 0.000000 1.592837 -0.457073 1.728470 2.287206 1.596788 -1.756105 1.728241 -0.602656 1.470130 -16.056189 0.443103 0.321724 -58.735852 10.816623 22.853880 -0.640936 -27.925969 1.130416 1.509540 -0.276552 1.668485 21.092555 10.900804 3.566809 52.390393 1.350278 3.613775 0.700087 52.369955 0.735228 0.000000 -0.000000 -0.000000 5.639610 13.893519 -10.025358 5.521055 8.475200 21.157541 0.000000 -0.000000 0.000000 2.244174 -11.518114 -10.364666 -0.981216 -1.919016 11.427252 
